<?xml version="1.0" standalone="no"?>
<!DOCTYPE svg PUBLIC "-//W3C//DTD SVG 20010904//EN"
 "http://www.w3.org/TR/2001/REC-SVG-20010904/DTD/svg10.dtd">
<svg version="1.0" xmlns="http://www.w3.org/2000/svg"
 width="228.000000pt" height="180.000000pt" viewBox="0 0 228.000000 180.000000"
 preserveAspectRatio="xMidYMid meet">
<metadata>
Created by potrace 1.16, written by Peter Selinger 2001-2019
</metadata>
<g transform="translate(0.000000,180.000000) scale(0.100000,-0.100000)"
fill="#000000" stroke="none">
<path d="M0 900 l0 -900 1140 0 1140 0 0 900 0 900 -1140 0 -1140 0 0 -900z
m875 833 c73 -14 192 -58 234 -87 20 -14 43 -26 50 -26 25 0 126 -63 163 -102
37 -38 37 -38 15 -50 -12 -7 -28 -11 -34 -10 -7 2 -13 -2 -13 -9 0 -6 8 -9 19
-6 16 4 18 -1 16 -34 -2 -40 -14 -56 -57 -78 -32 -17 -36 -31 -9 -31 52 0 19
-77 -70 -162 -32 -31 -74 -64 -94 -74 -42 -19 -47 -53 -12 -77 50 -36 -38 -49
-134 -21 -169 50 -333 153 -401 252 -18 26 -45 61 -60 77 -59 64 -83 217 -47
300 27 63 156 154 198 140 9 -2 23 0 31 5 16 11 126 7 205 -7z m-439 -468 c18
-27 15 -63 -13 -150 -25 -80 -93 -233 -129 -294 -19 -31 -34 -60 -34 -65 0 -5
-7 -16 -15 -25 -45 -46 -103 -137 -96 -150 5 -7 4 -26 -2 -41 -13 -34 10 -75
48 -90 13 -5 32 -24 41 -42 23 -45 65 -88 86 -88 9 0 20 -5 24 -11 8 -14 109
-59 130 -59 9 0 32 -13 51 -30 29 -26 42 -30 89 -30 30 0 68 -7 84 -15 31 -16
97 -21 147 -10 21 5 39 2 53 -8 20 -14 20 -15 2 -20 -11 -2 -26 -1 -33 4 -15
9 -57 2 -75 -12 -13 -10 -62 -3 -114 15 -19 7 -60 14 -90 15 -37 2 -61 9 -75
21 -28 26 -111 60 -146 60 -20 0 -35 9 -51 31 -13 17 -39 39 -59 49 -21 11
-41 32 -49 49 -7 17 -28 40 -46 52 -40 24 -67 71 -66 113 0 15 -8 40 -19 55
-15 21 -18 40 -16 91 2 65 3 65 33 68 51 5 138 90 178 175 38 81 99 247 117
320 13 53 22 58 45 22z m-36 -501 c-27 -68 -61 -133 -107 -209 -7 -11 -16 -28
-19 -37 -3 -10 -10 -18 -15 -18 -5 0 -9 -8 -10 -17 0 -15 -2 -14 -11 3 -8 17
-1 40 40 122 28 55 63 120 77 144 81 130 93 133 45 12z m1165 -427 c6 -7 3 -7
-10 -2 -11 4 -28 10 -37 12 -10 3 -18 9 -18 14 0 9 49 -9 65 -24z"/>
</g>
</svg>
